<svg clip-rule="evenodd" fill-rule="evenodd" stroke-linejoin="round" stroke-miterlimit="2" viewBox="0 0 100 100" xmlns="http://www.w3.org/2000/svg"><g transform="translate(-106 -306)"><g transform="translate(-1.722 -.285)"><g id="TNP--semi-solid-"><path d="m135.75 346.654c2.803-13.662 14.906-23.951 29.393-23.951 16.56 0 30.005 13.445 30.005 30.006 0 12.815-8.052 23.765-19.368 28.062l-.888-2.337c10.374-3.939 17.756-13.977 17.756-25.725 0-15.181-12.325-27.506-27.505-27.506-13.101 0-24.075 9.179-26.836 21.451h.66l2.713 12.925-6.412 6.412c3.768 6.955 9.504 12.691 16.458 16.458l1.99-1.991c-6.082-2.509-11.162-6.962-14.464-12.583l2.156-1.266c3.203 5.452 8.229 9.705 14.239 11.919l2.491-2.491 12.925 2.713v15.242c-26.126 0-47.337-21.212-47.337-47.338zm22.473 4.275c-3.722 1.141-7.013 3.499-9.296 6.773 0 0-1.213 1.741-1.213 1.741-.277.397-.3.92-.057 1.339l2.853 4.942c.223.387.636.625 1.083.625h27.1c.446 0 .859-.238 1.082-.625l2.853-4.942c.243-.419.221-.942-.057-1.339l-1.213-1.741c-2.283-3.274-5.574-5.632-9.296-6.773 2.143-1.908 3.494-4.688 3.494-7.78 0-5.747-4.666-10.413-10.413-10.413s-10.413 4.666-10.413 10.413c0 3.092 1.35 5.872 3.493 7.779zm3.349 1.836c.558-.067 1.002-.499 1.086-1.055.083-.556-.214-1.099-.728-1.328-2.768-1.233-4.7-4.009-4.7-7.233 0-4.367 3.545-7.913 7.913-7.913 4.367 0 7.913 3.546 7.913 7.913 0 3.224-1.933 6-4.701 7.233-.513.229-.811.772-.727 1.328.083.556.528.988 1.086 1.055 4.248.513 8.114 2.81 10.593 6.367 0 0 .759 1.089.759 1.089s-2.095 3.628-2.095 3.628h-25.657s-2.095-3.628-2.095-3.628.759-1.089.759-1.089c2.48-3.557 6.346-5.854 10.594-6.367zm-39.577-13.794h8.642v-2.5h-8.642zm-1.698-18.526 12.08 12.08 1.768-1.768-12.08-12.08zm17.387-.884v8.642h2.5v-8.642z"/></g></g></g></svg>